<svg xmlns="http://www.w3.org/2000/svg" width="12" height="12" viewBox="0 0 12 12">
    <g fill="none" fill-rule="evenodd">
        <g fill="#FFF">
            <path d="M6.65 0c.458 0 .898.249 1.108.67l.44.842h3.343c.249 0 .459.21.459.46 0 .248-.21.459-.459.459h-.344l-1.012 8.114C10.07 11.368 9.382 12 8.54 12H3.478c-.841 0-1.548-.632-1.644-1.455L.822 2.431H.459C.21 2.43 0 2.22 0 1.97c0-.249.21-.459.459-.459h3.363l.44-.842C4.471.249 4.91 0 5.368 0zm3.63 2.43H1.758l.994 8c.038.364.363.651.726.651H8.54c.363 0 .688-.287.727-.65l1.012-8zM3.688 3.618c.267-.019.478.172.497.421l.44 5.34c.018.249-.173.478-.421.498h-.038c-.249 0-.44-.192-.459-.421l-.44-5.34c-.019-.249.172-.479.42-.498zm2.312 0c.248 0 .459.21.459.46v5.34c0 .248-.21.459-.459.459-.248 0-.459-.21-.459-.46v-5.34c0-.248.21-.459.459-.459zm2.312 0c.249.02.44.249.42.498l-.439 5.34c-.02.248-.23.42-.459.42h-.038c-.248-.019-.44-.248-.42-.497l.44-5.34c.018-.249.248-.44.496-.42zM6.65.92H5.37c-.134 0-.249.057-.306.172l-.23.421h2.332l-.21-.421C6.897.995 6.782.919 6.65.919z"
                  transform="translate(-1769 -475) translate(410 451) translate(1285 15) translate(14 6) translate(60 3)"/>
        </g>
    </g>
</svg>
