<svg xmlns="http://www.w3.org/2000/svg" width="24" height="22" viewBox="0 0 24 22">
    <path fill="#AEC0CD" fill-rule="evenodd" d="M8.4 22a3.611 3.611 0 0 1-3.395-2.444H1a1 1 0 0 1-1-1v-.445a1 1 0 0 1 1-1h4.005a3.58 3.58 0 0 1 6.79 0H23a1 1 0 0 1 1 1v.445a1 1 0 0 1-1 1H11.8A3.612 3.612 0 0 1 8.4 22zm0-4.889a1.222 1.222 0 1 0 1.2 1.222 1.212 1.212 0 0 0-1.2-1.221v-.001zm7.2-2.444a3.611 3.611 0 0 1-3.395-2.444H1a1 1 0 0 1-1-1v-.445a1 1 0 0 1 1-1h11.205a3.58 3.58 0 0 1 6.79 0H23a1 1 0 0 1 1 1v.445a1 1 0 0 1-1 1h-4.005a3.612 3.612 0 0 1-3.395 2.444zm0-4.889A1.222 1.222 0 1 0 16.8 11a1.212 1.212 0 0 0-1.2-1.222zM8.4 7.333A3.61 3.61 0 0 1 5.005 4.89H1a1 1 0 0 1-1-1v-.444a1 1 0 0 1 1-1h4.005a3.58 3.58 0 0 1 6.79 0H23a1 1 0 0 1 1 1v.444a1 1 0 0 1-1 1H11.8a3.611 3.611 0 0 1-3.4 2.443zM8.5 2a1.5 1.5 0 1 0 0 3 1.5 1.5 0 0 0 0-3z"/>
</svg>