<svg width="227" height="39" viewBox="0 0 227 39" fill="none" xmlns="http://www.w3.org/2000/svg">
<path d="M1 19.5V38H4.405H7.81L7.9008 24.4333L8.037 10.9203L13.1672 16.7652L18.252 22.6638V18.1058V13.6014L12.6224 7.27391L6.9928 1H3.9964H1V19.5Z" fill="#3B82F6" stroke="black" stroke-width="1.33333"/>
<path d="M31.7813 14.4058L31.6451 27.8116L27.2867 23.1464C24.9259 20.5188 22.4743 17.9449 21.9295 17.3551L20.8853 16.2826L21.0669 20.787L21.2485 25.2913L26.9235 31.6188L32.5531 38H35.6403H38.6821V19.5V1H35.2771H31.8721L31.7813 14.4058Z" fill="#3B82F6" stroke="black" stroke-width="1.33333"/>
<path d="M51.9842 3.25217L48.67 5.50435V19.5V33.4957L52.0296 35.7478L55.3892 38H60.6556H65.922V34.5145V31.0826L60.6102 30.9217L55.253 30.7609L55.1168 19.3391L55.026 7.97101H60.474H65.922V4.48551V1H60.6102L55.253 1.05362L51.9842 3.25217Z" fill="#3B82F6" stroke="black" stroke-width="1.33333"/>
<path d="M69.1 4.48551V7.97101H74.321H79.542V19.5V31.029H74.321H69.1V34.5145V38H74.321C79.542 38 81.812 37.4101 81.8574 36.0159C81.8574 36.0159 81.8574 36.0159 82.3568 35.3188C82.3568 35.3188 82.8108 35.3188 82.493 35.9623C82.0844 36.713 85.0808 34.3 85.5802 33.442C85.7618 33.1739 85.9434 26.7391 85.9434 19.1783V5.3971L82.8562 3.19855L79.769 1H74.4572H69.1454V4.48551H69.1Z" fill="#3B82F6" stroke="black" stroke-width="1.33333"/>
<path d="M96.34 19.5V38H104.966H113.592V34.5145V31.0826L108.28 30.9217L102.923 30.7609L102.787 19.3391L102.696 7.97101H108.144H113.592V4.48551V1H104.966H96.34V19.5Z" fill="#3B82F6" stroke="black" stroke-width="1.33333"/>
<path d="M116.316 4.48551V7.97101H121.764H127.212V19.5V31.029H121.764H116.316V34.5145V38H121.809C126.168 38 127.575 37.8391 128.619 37.0884C129.346 36.5522 129.936 35.9623 129.936 35.6942C129.936 35.4797 130.118 35.3725 130.345 35.587C130.572 35.7478 130.935 35.587 131.071 35.3188C131.253 34.9971 131.888 34.5145 132.478 34.2464L133.568 33.7101V19.5536V5.3971L130.435 3.19855L127.303 1H121.809H116.316V4.48551Z" fill="#3B82F6" stroke="black" stroke-width="1.33333"/>
<path d="M142.648 17.2478V33.4957L145.962 35.7478L149.276 38H154.588H159.9V34.5145V31.029H154.679H149.458V16.0145V1H146.053H142.648V17.2478Z" fill="#3B82F6" stroke="black" stroke-width="1.33333"/>
<path d="M173.52 16.0145V31.029H168.299H163.078V34.5145V38H168.344C173.429 38 173.747 37.9464 176.199 36.3377C177.606 35.3725 179.013 34.2464 179.331 33.8174C179.74 33.1739 179.876 28.9913 179.876 16.9797V1H176.698H173.52V16.0145Z" fill="#3B82F6" stroke="black" stroke-width="1.33333"/>
<path d="M191.816 3.30579L188.502 5.55797V12.1V18.642L191.589 20.8406L194.676 22.9855H200.215H205.754V19.5V16.0145H200.306H194.858V12.2609V8.50724H200.306H205.754V4.75362V0.999996H200.442H195.085L191.816 3.30579Z" fill="#3B82F6" stroke="black" stroke-width="1.33333"/>
<path d="M208.478 4.75361V8.50723H213.926H219.374V10.6522V12.7971H222.779H226.184V9.15071V5.55796L222.779 3.25216L219.419 0.999987H213.926H208.478V4.75361Z" fill="#3B82F6" stroke="black" stroke-width="1.33333"/>
<path d="M208.478 19.5V22.9855H213.926H219.374V27.0072V31.029H214.153H208.932V34.5145V38H214.335C219.465 38 219.828 37.9464 221.099 36.6594C221.871 35.9087 222.643 35.3188 222.915 35.3188C223.188 35.3188 224.005 34.8899 224.777 34.4072L226.184 33.442V26.9536V20.5188L222.824 18.2667L219.465 16.0145H213.971H208.478V19.5Z" fill="#3B82F6" stroke="black" stroke-width="1.33333"/>
<path d="M188.502 30.0638V33.442L191.907 35.6942L195.267 38H200.533H205.754V34.5145V31.029H200.533H195.312V28.8841V26.7391H191.907H188.502V30.0638Z" fill="#3B82F6" stroke="black" stroke-width="1.33333"/>
</svg>
