<svg xmlns="http://www.w3.org/2000/svg" width="18" height="22" viewBox="0 0 18 22">
    <path fill="#AEC0CD" fill-rule="evenodd" d="M2.455 22C1.099 22 0 20.863 0 19.462V2.538C0 1.137 1.099 0 2.455 0h13.09C16.901 0 18 1.137 18 2.538v16.924C18 20.863 16.901 22 15.545 22H2.455zM1.636 2.538v16.924c0 .467.367.846.819.846h13.09c.452 0 .819-.38.819-.846V2.538c0-.467-.367-.846-.819-.846H2.455c-.452 0-.819.38-.819.846zm6.546 14.385c-.452 0-.818-.379-.818-.846 0-.467.366-.846.818-.846h4.909c.452 0 .818.379.818.846 0 .467-.366.846-.818.846H8.18zm-4.091-.846c0-.467.366-.846.818-.846.452 0 .818.379.818.846 0 .467-.366.846-.818.846-.452 0-.818-.379-.818-.846zm4.09-4.23c-.451 0-.817-.38-.817-.847 0-.467.366-.846.818-.846h4.909c.452 0 .818.379.818.846 0 .467-.366.846-.818.846H8.18zM4.092 11c0-.467.366-.846.818-.846.452 0 .818.379.818.846 0 .467-.366.846-.818.846-.452 0-.818-.379-.818-.846zm4.09-4.23c-.451 0-.817-.38-.817-.847 0-.467.366-.846.818-.846h4.909c.452 0 .818.379.818.846 0 .467-.366.846-.818.846H8.18zm-4.09-.847c0-.467.366-.846.818-.846.452 0 .818.379.818.846 0 .467-.366.846-.818.846-.452 0-.818-.379-.818-.846z"/>
</svg>
