<svg xmlns="http://www.w3.org/2000/svg" width="24" height="24" viewBox="0 0 24 24">
    <path fill="#FFF" fill-rule="evenodd" d="M.001 21.661l1.433-6.879 1.431-1.374 1.433-1.375 6.451-6.191 2.449-2.352 1.327-1.274.823-.791c1.983-1.874 5.17-1.863 7.138.026 1.968 1.89 1.982 4.948.03 6.853l-3.166 3.04-1.434 1.376-9.315 8.94-7.171 1.385L.001 21.66zm3.3-5.92l-1.075 5.163 5.376-1.035 1-.96-4.3-4.128-1.001.96zm6.731 1.795l6.45-6.19-2.568 2.463 5.018-4.817-4.3-4.128-2.449 2.352-6.45 6.191 4.299 4.13zm10.333-9.92l.716-.687c.79-.733 1.107-1.818.828-2.838-.278-1.02-1.108-1.818-2.171-2.085-1.063-.267-2.193.037-2.957.795l-.717.689 4.301 4.127z"/>
</svg>
